<svg width="529" height="165" viewBox="0 0 529 165" fill="none" xmlns="http://www.w3.org/2000/svg">
<rect width="529" height="165" fill="#8B2ADE" fill-opacity="0.13"/>
<g style="mix-blend-mode:lighten">
<path d="M353.56 94V66.16H355V94H353.56ZM371.32 94L356.536 79.312L369.784 66.16H371.848L358.6 79.312L373.384 94H371.32ZM407.373 94V66.16H408.812L424.461 91.36V66.16H425.901V94H424.461L408.812 68.752V94H407.373ZM435.029 94V66.16H436.469V94H435.029ZM452.789 94L438.005 79.312L451.253 66.16H453.317L440.069 79.312L454.853 94H452.789ZM471.444 80.032L477.972 94H476.388L469.668 79.6C469.732 79.568 470.004 79.44 470.484 79.216C470.996 78.96 471.348 78.784 471.54 78.688C471.732 78.56 472.052 78.352 472.5 78.064C472.948 77.776 473.284 77.504 473.508 77.248C473.732 76.96 473.972 76.64 474.228 76.288C474.516 75.904 474.724 75.488 474.852 75.04C474.98 74.56 475.044 74.048 475.044 73.504C475.044 71.488 474.084 70 472.164 69.04C470.244 68.08 467.86 67.6 465.012 67.6H461.172V94H459.732V66.16H465.012C468.788 66.16 471.636 66.816 473.556 68.128C475.508 69.44 476.484 71.232 476.484 73.504C476.484 74.976 475.988 76.288 474.996 77.44C474.004 78.56 472.82 79.424 471.444 80.032ZM503.106 91.168C501.346 93.376 498.466 94.48 494.466 94.48C490.466 94.48 487.602 93.344 485.874 91.072C484.146 88.8 483.282 85.136 483.282 80.08C483.282 75.024 484.146 71.36 485.874 69.088C487.602 66.816 490.466 65.68 494.466 65.68C499.106 65.68 502.258 67.2 503.922 70.24L492.162 80.08H489.906L502.05 69.952C500.642 68.064 498.114 67.12 494.466 67.12C492.866 67.12 491.522 67.296 490.434 67.648C489.346 67.968 488.338 68.592 487.41 69.52C486.514 70.416 485.842 71.744 485.394 73.504C484.946 75.232 484.722 77.424 484.722 80.08C484.722 82.736 484.946 84.944 485.394 86.704C485.842 88.432 486.514 89.76 487.41 90.688C488.338 91.584 489.346 92.208 490.434 92.56C491.522 92.88 492.866 93.04 494.466 93.04C498.114 93.04 500.642 92.096 502.05 90.208L503.106 91.168ZM518.123 65.584C522.091 65.584 524.907 66.464 526.571 68.224L525.611 69.28C524.075 67.776 521.643 67.024 518.315 67.024C513.323 67.024 510.827 69.008 510.827 72.976C510.827 74.512 511.435 75.744 512.651 76.672C513.867 77.568 515.339 78.256 517.067 78.736C518.827 79.216 520.571 79.728 522.299 80.272C524.059 80.784 525.547 81.632 526.763 82.816C527.979 83.968 528.587 85.488 528.587 87.376C528.587 89.584 527.675 91.344 525.851 92.656C524.027 93.968 521.387 94.624 517.931 94.624C516.235 94.624 514.555 94.4 512.891 93.952C511.259 93.504 510.043 92.848 509.243 91.984L510.203 90.928C511.835 92.432 514.347 93.184 517.739 93.184C520.843 93.184 523.179 92.608 524.747 91.456C526.347 90.304 527.147 88.96 527.147 87.424C527.147 85.824 526.539 84.528 525.323 83.536C524.107 82.544 522.619 81.808 520.859 81.328C519.131 80.816 517.387 80.304 515.627 79.792C513.899 79.248 512.427 78.416 511.211 77.296C509.995 76.176 509.387 74.704 509.387 72.88C509.387 70.416 510.203 68.592 511.835 67.408C513.499 66.192 515.595 65.584 518.123 65.584Z" fill="#250932"/>
<path d="M392.279 67.648C391.191 67.296 389.847 67.12 388.247 67.12C386.647 67.12 385.303 67.296 384.215 67.648C383.127 67.968 382.119 68.592 381.191 69.52C380.295 70.416 379.623 71.744 379.175 73.504C378.727 75.232 378.503 77.424 378.503 80.08C378.503 82.736 378.727 84.944 379.175 86.704C379.623 88.432 380.295 89.76 381.191 90.688C382.119 91.584 383.127 92.208 384.215 92.56C385.303 92.88 386.647 93.04 388.247 93.04C389.847 93.04 391.191 92.88 392.279 92.56C393.367 92.208 394.359 91.584 395.255 90.688C396.183 89.76 396.871 88.432 397.319 86.704C397.767 84.944 397.991 82.736 397.991 80.08C397.991 77.424 397.767 75.232 397.319 73.504C396.871 71.744 396.183 70.416 395.255 69.52C394.359 68.592 393.367 67.968 392.279 67.648ZM396.839 91.072C395.111 93.344 392.247 94.48 388.247 94.48C384.247 94.48 381.383 93.344 379.655 91.072C377.927 88.8 377.063 85.136 377.063 80.08C377.063 75.024 377.927 71.36 379.655 69.088C381.383 66.816 384.247 65.68 388.247 65.68C392.247 65.68 395.111 66.816 396.839 69.088C398.567 71.36 399.431 75.024 399.431 80.08C399.431 85.136 398.567 88.8 396.839 91.072Z" fill="#78E3B8"/>
<circle cx="166" cy="72" r="50" fill="#250932"/>
<circle cx="55" cy="72" r="50" fill="#250932"/>
<circle cx="166.5" cy="146.5" r="18.5" fill="#78E3B8"/>
<circle cx="277" cy="72" r="50" fill="#250932"/>
<line x1="142.492" y1="1.08825" x2="116.492" y2="146.088" stroke="#78E3B8"/>
<path d="M55 1L55 146" stroke="#78E3B8"/>
<line y1="93.5" x2="333" y2="93.5" stroke="#78E3B8"/>
<line x1="254.5" y1="1.0069" x2="252.5" y2="146.007" stroke="#78E3B8"/>
<line x1="227.426" y1="0.738443" x2="316.426" y2="145.738" stroke="#78E3B8"/>
</g>
</svg>
